<?xml version="1.0" encoding="utf-8"?>
<!-- Generator: Adobe Illustrator 19.0.0, SVG Export Plug-In . SVG Version: 6.00 Build 0)  -->
<svg version="1.1" id="Layer_1" xmlns="http://www.w3.org/2000/svg" xmlns:xlink="http://www.w3.org/1999/xlink" x="0px" y="0px"
	 viewBox="0 0 500 100" style="enable-background:new 0 0 500 100;" xml:space="preserve">
<style type="text/css">
	.st0{fill:#888888;}
</style>
<g id="XMLID_1_">
	<path id="XMLID_7_" class="st0" d="M458.6,33.3c-4-1.7-8-2.8-12.3-2.9c-1.4,0-1.8-0.6-1.5-1.9c0.3-0.9,0.4-1.8,0.4-2.8
		c0.4-9.5-5.5-16.7-15.3-18.5c-88.3,0-176.6,0-264.9,0c-1.1,0.6-1.9,1.6-2.7,2.5c-5.4,6.4-10.8,12.9-16.3,19.3
		c-1.1,1.3-1,2.5,0.1,3.6c1.1,1.1,2.1,2.4,3,3.7c7.7,10.8,5.1,26.3-5.7,34c-5.6,4-11.9,5.4-18.6,5c-3.6-0.2-7.1-1.2-10.4-2.8
		c-2.2-1-2.3-1.4-0.8-3.3c1.1-1.4,2.3-2.8,3.5-4.1c0.7-0.8,1.3-1.5,0.9-2.7c-0.4-0.8-1.1-1.3-1.7-2c-4.4-4.6-5.3-12.1-2-17.6
		c3.5-5.8,10.2-8.6,16.5-7c2.6,0.7,4.7,2.2,6.9,3.5c1,0.2,1.4-0.5,2-1.1c1.5-1.5,2.8-3.1,4.1-4.8c2-2.4,1.8-3.2-0.8-4.9
		c-4.8-3-10.1-4.4-15.8-4.4c-1.9,0-3.1-0.5-4.1-2.3c-2.9-4.9-9-6.6-13.7-3.9c-5.2,3-6.9,8.7-4.3,13.5c0.7,1.3,0.4,2.2-0.4,3.3
		c-4.1,5.8-5.9,12.3-4.7,19.4c1,6,3.7,11.1,8.3,15.2c2,1.8,1.9,1.8,0.3,3.8c-5,6.1-10.2,11.9-15.1,18.1c-0.5,0.6-1.4,1.2-1.1,2.2
		c119,0,238.1,0,357.1,0c2.4-0.5,4.8-0.5,7.1-1.4c8.6-3.5,14.7-9.4,18.4-17.9C481.5,59.1,473.9,39.9,458.6,33.3z M207.3,75.6
		c-2.9-0.1-5.8-0.1-8.7,0c-1.2,0-1.8-0.3-2.2-1.5c-0.8-2.2-1.8-4.4-2.6-6.6c-0.5-1.3-1.2-1.9-2.7-1.9c-6.4,0.1-12.8,0.1-19.3,0
		c-1.6,0-2.3,0.7-2.8,2c-0.8,2.2-1.8,4.4-2.6,6.6c-0.3,0.8-0.7,1.4-1.6,1.4c-3.4,0-6.8,0-10.6,0c2.9-6.7,5.6-13.1,8.4-19.4
		c4.1-9.6,8.3-19.1,12.4-28.7c0.7-1.5,1.4-2.2,3.2-2.1c2.7,0.2,5.3,0.1,8,0c1.2,0,1.7,0.4,2.2,1.5c5.7,13.5,11.5,27,17.3,40.5
		c0.9,2.1,1.8,4.2,2.7,6.3C209,74.9,209.1,75.6,207.3,75.6z M246.4,27.3c-0.1,1.9-0.1,3.9,0,5.8c0.1,1.3-0.4,1.8-1.8,1.8
		c-3.8-0.1-7.5,0.1-11.3-0.1c-1.7-0.1-2.2,0.5-2.2,2.2c0.1,12,0,24.1,0.1,36.1c0,1.9-0.5,2.6-2.4,2.4c-2.2-0.2-4.5-0.1-6.7,0
		c-1.7,0.1-2.2-0.5-2.2-2.2c0.1-11.4,0-22.8,0-34.2c0-4.3,0-4.3-4.3-4.3c-3.2,0-6.4,0-9.5,0c-1.3,0-1.8-0.4-1.7-1.8
		c0.1-1.9,0.1-3.9,0-5.8c-0.1-1.5,0.5-2,2-2c6.3,0.1,12.7,0,19,0c6.3,0,12.7,0,19,0C245.9,25.3,246.5,25.8,246.4,27.3z M315.2,50.4
		c0,7.6,0,15.3,0,22.9c0,1.7-0.5,2.3-2.2,2.2c-2.4-0.1-4.8-0.1-7.1,0c-1.5,0.1-2-0.4-2-2c0.1-5.3,0-10.5,0.1-15.8
		c0-1.7-0.5-2.2-2.2-2.2c-6.3,0.1-12.6,0.1-18.8,0c-1.5,0-2,0.4-2,2c0.1,5.3,0,10.7,0.1,16c0,1.5-0.4,2.1-2,2
		c-2.4-0.1-4.8-0.1-7.1,0c-1.7,0.1-2.2-0.5-2.2-2.2c0.1-7.6,0-15.3,0-22.9s0-15.3,0-22.9c0-1.7,0.5-2.3,2.2-2.2
		c2.4,0.1,4.8,0.1,7.1,0c1.5-0.1,2,0.4,2,2c-0.1,5.6,0,11.1-0.1,16.7c0,1.7,0.5,2.2,2.2,2.2c6.3-0.1,12.6-0.1,18.8,0
		c1.5,0,2-0.4,2-2c-0.1-5.6,0-11.3-0.1-16.9c0-1.5,0.4-2.1,2-2c2.4,0.1,4.8,0.1,7.1,0c1.7-0.1,2.2,0.5,2.2,2.2
		C315.1,35.1,315.2,42.8,315.2,50.4z M370.6,42.4c0,4.1-0.1,8.2,0,12.3c0.4,10.9-7.2,19.6-17.9,20.9c-6.8,0.8-13.1,0.1-18.8-3.7
		c-5.4-3.6-8.1-8.9-8.3-15.1c-0.3-9.8-0.1-19.6-0.1-29.4c0-1.6,0.4-2.2,2-2.1c2.4,0.1,4.8,0.1,7.1,0c1.8-0.1,2.2,0.6,2.1,2.3
		c-0.1,9,0,18,0,27c0,4.9,2.5,9,6.5,10.5c5.2,2,10,1,13.4-2.8c1.9-2.1,2.5-4.8,2.6-7.6c0.1-9,0.1-18,0-27c0-2,0.6-2.5,2.5-2.4
		c2.3,0.2,4.6,0.1,6.9,0c1.5-0.1,2,0.5,2,2C370.6,32.3,370.6,37.4,370.6,42.4z M417.6,72.6c-3.4,1.9-7.1,2.8-10.9,2.9
		c-7.9,0.2-15.7,0-23.6,0.1c-1.6,0-2.1-0.4-2.1-2c0.1-15.4,0.1-30.9,0-46.3c0-1.5,0.5-2,2-1.9c7.9,0.1,15.7-0.2,23.6,0.1
		c4.5,0.2,9,1.3,12.4,4.8c5.2,5.3,3.7,14.4-2.8,17.8c-0.6,0.3-1.2,0.6-2,1c2.8,1.2,5.4,2.3,7.2,4.7
		C425.9,59.8,424.2,68.8,417.6,72.6z"/>
	<path id="XMLID_52_" class="st0" d="M21.7,50.4c0-7.6,0-15.3,0-22.9c0-1.7,0.5-2.2,2.2-2.2c10.5,0.1,21.1,0.1,31.6,0
		c1.7,0,2.3,0.5,2.2,2.2c-0.1,1.8-0.1,3.6,0,5.4c0.1,1.5-0.5,2-2,2c-6.8-0.1-13.6,0-20.3-0.1c-1.9,0-2.5,0.5-2.4,2.4
		c0.2,2.6,0.1,5.2,0,7.8c-0.1,1.5,0.5,2,2,2c6.1-0.1,12.3,0,18.4-0.1c1.7,0,2.3,0.5,2.2,2.2c-0.1,1.8-0.1,3.6,0,5.4
		c0.1,1.5-0.5,2-2,2c-6.1-0.1-12.1,0-18.2-0.1c-1.9,0-2.5,0.5-2.4,2.4c0.1,4.9,0,9.8,0.1,14.7c0,1.5-0.5,2-2,2
		c-2.4-0.1-4.9-0.1-7.4,0c-1.5,0.1-2-0.5-2-2C21.7,65.9,21.7,58.2,21.7,50.4z"/>
	<path id="XMLID_51_" class="st0" d="M64.1,50.4c0-7.6,0.1-15.3,0-22.9c0-1.7,0.5-2.3,2.2-2.2c2.3,0.1,4.6,0.1,6.9,0
		c1.7-0.1,2.2,0.5,2.2,2.2c-0.1,11.2,0,22.4,0,33.5c0,0.8,0.1,1.6,0,2.4c-0.2,1.7,0.4,2.3,2.2,2.2c5.6-0.1,11.2,0,16.9,0
		c0.5,0,1.3-0.3,1.5,0.4c0.2,0.5-0.4,0.9-0.8,1.2c-2.2,2.4-4.5,4.7-6.6,7.1c-0.9,0.9-1.8,1.3-3,1.2c-6.3-0.1-12.7-0.1-19,0
		c-2,0-2.4-0.7-2.4-2.5C64.2,65.5,64.1,58,64.1,50.4z"/>
	<path id="XMLID_50_" class="st0" d="M118.2,62.6c3-2.7,5.3-6,7.9-9.1c3.9-4.6,7.7-9.3,11.6-13.9c0.9,0,1.3,0.7,1.8,1.4
		c6.8,9.8,1.9,22.5-9.8,24.8C125.5,66.7,121.4,65.8,118.2,62.6z"/>
	<path id="XMLID_49_" class="st0" d="M129.7,21.4c-3.2,0-5.9-2.6-5.9-5.7c0-3.1,2.7-5.6,5.9-5.6c3.1,0.1,5.7,2.5,5.7,5.6
		C135.6,18.8,133,21.4,129.7,21.4z"/>
	<path id="XMLID_48_" class="st0" d="M476.7,32.7c-6.2,0-11.3-5.2-11.3-11.3c0-6.3,5.2-11.3,11.8-11.2c6.1,0,11.2,5.2,11.2,11.4
		C488.3,27.7,483.1,32.7,476.7,32.7z"/>
	<path id="XMLID_47_" class="st0" d="M398.2,66.4c-6,0-6,0-6-5.9c0-1.4,0.1-2.7,0-4.1c-0.1-1.5,0.3-2.3,2-2.1
		c4.3,0.3,8.6-0.5,12.9,0.5c3.4,0.8,5.3,3.1,5,6c-0.3,2.8-3,5-6.2,5.2c-1.3,0.1-2.6,0.3-3.8,0.4C400.8,66.5,399.5,66.4,398.2,66.4z"
		/>
	<path id="XMLID_46_" class="st0" d="M399,45.7c-1.7,0-3.5,0-5.2,0c-1.1,0-1.6-0.4-1.6-1.5c0-2.7,0-5.5,0-8.2c0-1.1,0.3-1.6,1.5-1.6
		c4,0.1,8.1-0.3,12.1,0.5c2.9,0.5,4.8,2.7,4.7,5.5c-0.1,2.9-2.6,5.1-6.1,5.3C402.6,45.7,400.8,45.7,399,45.7z"/>
	<path id="XMLID_45_" class="st0" d="M181.6,37.5c2.5,5.9,4.8,11.5,7.1,17c0.5,1.3,0.7,2.1-1.2,2c-4-0.1-7.9-0.1-11.9,0
		c-1.4,0-2-0.1-1.3-1.8c2.3-5.3,4.4-10.7,6.6-16.1C181,38.3,181.2,38,181.6,37.5z"/>
</g>
</svg>
